<svg width="20" height="20" viewBox="0 0 20 20" fill="none" xmlns="http://www.w3.org/2000/svg">
<path d="M5.84615 15.9375C4.74606 15.9375 3.84615 16.8514 3.84615 17.9688C3.84615 19.086 4.74606 20 5.84615 20C6.94625 20 7.8462 19.086 7.8462 17.9688C7.84615 16.8514 6.9462 15.9375 5.84615 15.9375ZM0 0V2.03125H2L5.60014 9.43758L4.09495 11.9256C3.94505 12.1795 3.84495 12.535 3.84495 12.8906C3.84495 14.2505 4.75962 14.9219 6 14.9219H17.6923V12.9688H6.24486C6.09495 12.9688 5.99486 12.8671 5.99486 12.7149C5.99486 12.6643 6.10096 12.461 6.10096 12.461L7.1001 10.8594H14.5498C15.2999 10.8594 15.9502 10.4533 16.2998 9.79319L19.8999 3.50414C19.9594 3.38398 20 3.19916 20 2.99638C20 2.43749 19.5498 2.03129 19 2.03129H4.20019L3.25 0H0ZM15.6923 15.9375C14.5922 15.9375 13.6923 16.8514 13.6923 17.9688C13.6923 19.086 14.5922 20 15.6923 20C16.7924 20 17.6923 19.086 17.6923 17.9687C17.6923 16.8514 16.7924 15.9375 15.6923 15.9375Z" fill="#010101"/>
</svg>
